# File created by Blade
# Date/Time:  Wed Sep 24 19:42:34 2014
# Frame Rate: 120.000 fps
#------------------------------------------------------
:FULLY-SPECIFIED
:DEGREES
3407
root -4.273349 33.023374 -3.102036 9.701912 -0.079492 -1.981510
Spine -13.186360 9.654133 -6.961961
Head 13.194601 -11.570522 9.937540
LeftShoulder -17.578708 24.821833 8.430086
LeftArm 21.897194 24.213875 -66.000899
LeftForeArm 3.929078 -0.000000 31.415865
LeftHand -25.608953 -0.000000 -5.642853
LeftHandThumb1 -26.253704 0.000000 33.147579
RightShoulder 337.770529 22.998438 305.150083
RightArm 6.756377 60.150480 26.908939
RightForeArm 35.926607 -0.000000 105.334086
RightHand 4.608738 -0.000000 7.827110
RightHandThumb1 -24.326973 -0.000000 -32.862282
LeftUpLeg -2.848285 6.073573 4.743230
LeftLeg -2.448762 -0.000000 0.000000
LeftFoot -8.789882 5.686828 -19.075907
LeftToeBase 10.410401 -0.000000 -0.000000
RightUpLeg -5.729152 -7.009577 -0.511478
RightLeg 1.516172 -0.000000 -0.000000
RightFoot -6.096410 -3.463870 -15.136039
RightToeBase 0.350356 -0.000000 -0.000000
3408
root -4.268486 33.022337 -3.100994 9.691840 -0.072257 -1.977667
Spine -13.177503 9.585799 -6.925265
Head 12.995403 -11.448573 10.006943
LeftShoulder -17.574084 24.828206 8.424742
LeftArm 21.891838 24.385771 -66.079635
LeftForeArm 3.983447 -0.000000 31.394004
LeftHand -25.747956 -0.000000 -5.497076
LeftHandThumb1 -26.253704 0.000000 33.147579
RightShoulder 337.849461 22.583346 305.627448
RightArm 5.865010 59.756792 26.170346
RightForeArm 34.620925 -0.000000 105.133742
RightHand 4.325987 -0.000000 7.552692
RightHandThumb1 -24.326973 -0.000000 -32.862282
LeftUpLeg -2.833860 6.065940 4.732758
LeftLeg -2.456537 -0.000000 0.000000
LeftFoot -8.795847 5.688546 -19.062801
LeftToeBase 10.409107 -0.000000 -0.000000
RightUpLeg -5.718488 -7.004392 -0.527807
RightLeg 1.522359 -0.000000 -0.000000
RightFoot -6.108688 -3.465445 -15.120856
RightToeBase 0.331716 -0.000000 -0.000000
3409
root -4.262908 33.020893 -3.101007 9.693684 -0.071157 -1.974557
Spine -13.182990 9.509497 -6.887902
Head 12.772966 -11.345512 10.064305
LeftShoulder -17.580035 24.832415 8.430397
LeftArm 21.864115 24.494862 -66.213031
LeftForeArm 4.003734 -0.000000 31.352080
LeftHand -25.700434 -0.000000 -5.528912
LeftHandThumb1 -26.253704 0.000000 33.147579
RightShoulder 337.951415 22.232718 306.073620
RightArm 4.826527 59.270584 25.337516
RightForeArm 33.546028 0.000000 104.931509
RightHand 4.028311 0.000000 7.114954
RightHandThumb1 -24.326973 -0.000000 -32.862282
LeftUpLeg -2.838236 6.065755 4.719518
LeftLeg -2.452006 -0.000000 0.000000
LeftFoot -8.813800 5.681696 -19.055494
LeftToeBase 10.366696 -0.000000 -0.000000
RightUpLeg -5.720533 -6.993555 -0.542123
RightLeg 1.524615 -0.000000 -0.000000
RightFoot -6.115250 -3.487209 -15.123101
RightToeBase 0.371073 -0.000000 -0.000000
3410
root -4.256909 33.019435 -3.100916 9.682563 -0.072654 -1.965767
Spine -13.169486 9.431596 -6.854502
Head 12.542742 -11.232310 10.134880
LeftShoulder -17.592239 24.854879 8.431210
LeftArm 21.851479 24.603613 -66.334204
LeftForeArm 4.104388 0.000000 31.342275
LeftHand -25.689414 -0.000000 -5.575571
LeftHandThumb1 -26.253704 0.000000 33.147579
RightShoulder 338.038080 21.870856 306.571649
RightArm 3.899964 58.777692 24.575140
RightForeArm 32.404867 -0.000000 104.702286
RightHand 3.780376 -0.000000 6.924269
RightHandThumb1 -24.326973 -0.000000 -32.862282
LeftUpLeg -2.829412 6.078059 4.701844
LeftLeg -2.445644 -0.000000 0.000000
LeftFoot -8.830138 5.650245 -19.072637
LeftToeBase 10.355899 -0.000000 -0.000000
RightUpLeg -5.711798 -7.001583 -0.564355
RightLeg 1.531236 -0.000000 -0.000000
RightFoot -6.136627 -3.474311 -15.109790
RightToeBase 0.354589 -0.000000 -0.000000
3411
root -4.251647 33.018498 -3.101281 9.670010 -0.074856 -1.956594
Spine -13.154960 9.350238 -6.815491
Head 12.314415 -11.115040 10.179661
LeftShoulder -17.583994 24.859228 8.442557
LeftArm 21.815153 24.804397 -66.444781
LeftForeArm 4.283512 0.000000 31.332902
LeftHand -25.644627 -0.000000 -5.320518
LeftHandThumb1 -26.253704 0.000000 33.147579
RightShoulder 338.056206 21.648721 306.948444
RightArm 2.966675 58.102228 23.925945
RightForeArm 31.279839 -0.000000 104.500931
RightHand 3.541313 -0.000000 6.743843
RightHandThumb1 -24.326973 -0.000000 -32.862282
LeftUpLeg -2.819124 6.065685 4.684544
LeftLeg -2.440394 -0.000000 0.000000
LeftFoot -8.834702 5.675399 -19.001288
LeftToeBase 10.343680 -0.000000 -0.000000
RightUpLeg -5.701042 -6.993210 -0.585879
RightLeg 1.535645 -0.000000 -0.000000
RightFoot -6.141637 -3.485327 -15.137868
RightToeBase 0.346841 -0.000000 -0.000000
3412
root -4.245229 33.016539 -3.101385 9.660689 -0.075270 -1.945119
Spine -13.135972 9.256155 -6.776403
Head 12.058245 -10.977731 10.235532
LeftShoulder -17.602019 24.864500 8.454639
LeftArm 21.764957 24.894258 -66.600920
LeftForeArm 4.362274 -0.000000 31.337546
LeftHand -25.617691 -0.000000 -5.310545
LeftHandThumb1 -26.253704 0.000000 33.147579
RightShoulder 338.167952 21.421751 307.372642
RightArm 1.802667 57.487657 23.068709
RightForeArm 29.847879 -0.000000 104.326110
RightHand 3.406520 -0.000000 6.268835
RightHandThumb1 -24.326973 -0.000000 -32.862282
LeftUpLeg -2.809770 6.035642 4.663145
LeftLeg -2.440505 -0.000000 0.000000
LeftFoot -8.861385 5.705860 -18.994254
LeftToeBase 10.350849 -0.000000 -0.000000
RightUpLeg -5.701336 -6.999121 -0.608684
RightLeg 1.557181 -0.000000 -0.000000
RightFoot -6.171358 -3.497456 -15.135304
RightToeBase 0.360689 -0.000000 -0.000000
3413
root -4.239190 33.015272 -3.102159 9.658359 -0.080191 -1.933928
Spine -13.124565 9.166677 -6.735517
Head 11.778869 -10.833655 10.274891
LeftShoulder -17.609886 24.877583 8.466616
LeftArm 21.731020 24.991641 -66.753608
LeftForeArm 4.365816 0.000000 31.324406
LeftHand -25.590113 -0.000000 -5.376747
LeftHandThumb1 -26.253704 0.000000 33.147579
RightShoulder 338.247873 21.103070 307.831612
RightArm 0.888624 56.945923 22.444537
RightForeArm 27.840825 -0.000000 104.170813
RightHand 2.992727 -0.000000 6.096183
RightHandThumb1 -24.326973 -0.000000 -32.862282
LeftUpLeg -2.809936 6.025919 4.642557
LeftLeg -2.433828 -0.000000 0.000000
LeftFoot -8.879418 5.701482 -18.992807
LeftToeBase 10.407723 -0.000000 -0.000000
RightUpLeg -5.700999 -6.993602 -0.632292
RightLeg 1.557202 -0.000000 -0.000000
RightFoot -6.182628 -3.495079 -15.134555
RightToeBase 0.338651 -0.000000 -0.000000
3414
root -4.234263 33.014010 -3.103268 9.655988 -0.091368 -1.937817
Spine -13.113901 9.081075 -6.677053
Head 11.524803 -10.691340 10.330934
LeftShoulder -17.647134 24.899883 8.460185
LeftArm 21.733342 25.105822 -66.881539
LeftForeArm 4.323526 -0.000000 31.304300
LeftHand -25.651738 -0.000000 -5.319208
LeftHandThumb1 -26.253704 0.000000 33.147579
RightShoulder 338.318714 20.784168 308.291505
RightArm -0.008037 56.319148 21.856250
RightForeArm 25.840532 0.000000 104.049125
RightHand 2.604262 -0.000000 5.733600
RightHandThumb1 -24.326973 -0.000000 -32.862282
LeftUpLeg -2.810703 6.044511 4.636719
LeftLeg -2.429801 -0.000000 0.000000
LeftFoot -8.891605 5.680732 -18.995697
LeftToeBase 10.388346 -0.000000 -0.000000
RightUpLeg -5.696628 -6.954749 -0.642625
RightLeg 1.549816 -0.000000 -0.000000
RightFoot -6.184799 -3.513782 -15.117915
RightToeBase 0.379855 -0.000000 -0.000000
3415
root -4.229906 33.012187 -3.103940 9.647335 -0.103933 -1.931584
Spine -13.088125 8.988046 -6.631004
Head 11.247348 -10.529441 10.410953
LeftShoulder -17.688851 24.899665 8.458657
LeftArm 21.706794 25.204599 -67.016398
LeftForeArm 4.394458 -0.000000 31.291530
LeftHand -25.556287 -0.000000 -5.477730
LeftHandThumb1 -26.253704 0.000000 33.147579
RightShoulder 338.370708 20.547642 308.689303
RightArm -0.958897 55.607874 21.311029
RightForeArm 23.909827 0.000000 103.940318
RightHand 2.186537 -0.000000 5.160399
RightHandThumb1 -24.326973 -0.000000 -32.862282
LeftUpLeg -2.801445 6.037002 4.623596
LeftLeg -2.425439 -0.000000 0.000000
LeftFoot -8.920946 5.702213 -18.987888
LeftToeBase 10.416036 -0.000000 -0.000000
RightUpLeg -5.696808 -6.953747 -0.662939
RightLeg 1.565237 -0.000000 -0.000000
RightFoot -6.217649 -3.479438 -15.088731
RightToeBase 0.405144 -0.000000 -0.000000
3416
root -4.223353 33.010645 -3.105210 9.639146 -0.128841 -1.915832
Spine -13.072765 8.894651 -6.590172
Head 11.009045 -10.345613 10.477983
LeftShoulder -17.720095 24.927212 8.442104
LeftArm 21.701423 25.312892 -67.123467
LeftForeArm 4.304533 0.000000 31.275826
LeftHand -25.566031 -0.000000 -5.369171
LeftHandThumb1 -26.253704 0.000000 33.147579
RightShoulder 338.424635 20.278517 309.152049
RightArm -1.737228 54.932069 20.889591
RightForeArm 21.772486 -0.000000 103.809663
RightHand 1.652174 -0.000000 4.609387
RightHandThumb1 -24.326973 -0.000000 -32.862282
LeftUpLeg -2.790946 6.032462 4.595100
LeftLeg -2.423340 -0.000000 0.000000
LeftFoot -8.940585 5.706757 -18.995075
LeftToeBase 10.416901 -0.000000 -0.000000
RightUpLeg -5.708838 -6.952737 -0.690691
RightLeg 1.598338 -0.000000 -0.000000
RightFoot -6.246642 -3.489032 -15.141006
RightToeBase 0.386497 -0.000000 -0.000000
3417
root -4.218195 33.009162 -3.106687 9.630314 -0.151627 -1.910578
Spine -13.041938 8.804574 -6.535266
Head 10.698785 -10.135066 10.554194
LeftShoulder -17.771013 24.910892 8.413933
LeftArm 21.686364 25.454116 -67.212314
LeftForeArm 4.239497 -0.000000 31.248455
LeftHand -25.511479 -0.000000 -5.356549
LeftHandThumb1 -26.253704 0.000000 33.147579
RightShoulder 338.495180 19.991078 309.615589
RightArm -2.572909 54.312486 20.459680
RightForeArm 19.448971 -0.000000 103.644796
RightHand 1.191964 0.000000 4.326412
RightHandThumb1 -24.326973 -0.000000 -32.862282
LeftUpLeg -2.779497 6.030551 4.579783
LeftLeg -2.426720 -0.000000 0.000000
LeftFoot -8.958410 5.729633 -18.982623
LeftToeBase 10.393511 -0.000000 -0.000000
RightUpLeg -5.711627 -6.928203 -0.709124
RightLeg 1.614310 -0.000000 -0.000000
RightFoot -6.258745 -3.507849 -15.151197
RightToeBase 0.376588 -0.000000 -0.000000
3418
root -4.212405 33.006793 -3.108257 9.634765 -0.174584 -1.907018
Spine -13.043476 8.736762 -6.489154
Head 10.435646 -9.987372 10.645873
LeftShoulder -17.787146 24.906936 8.423671
LeftArm 21.673713 25.587124 -67.332092
LeftForeArm 4.188154 0.000000 31.213615
LeftHand -25.494950 -0.000000 -5.442186
LeftHandThumb1 -26.253704 0.000000 33.147579
RightShoulder 338.603417 19.356307 310.290683
RightArm -3.079285 53.979809 20.206244
RightForeArm 17.362855 -0.000000 103.459153
RightHand 0.675083 -0.000000 4.125630
RightHandThumb1 -24.326973 -0.000000 -32.862282
LeftUpLeg -2.779769 6.042071 4.563240
LeftLeg -2.431908 -0.000000 0.000000
LeftFoot -8.979108 5.726228 -18.968657
LeftToeBase 10.417176 -0.000000 -0.000000
RightUpLeg -5.726358 -6.916132 -0.723765
RightLeg 1.625595 -0.000000 -0.000000
RightFoot -6.280991 -3.509403 -15.170670
RightToeBase 0.400948 -0.000000 -0.000000
